<?xml version="1.0" encoding="utf-8"?>
<!-- Generator: Adobe Illustrator 16.0.0, SVG Export Plug-In . SVG Version: 6.00 Build 0)  -->
<!DOCTYPE svg PUBLIC "-//W3C//DTD SVG 1.1//EN" "http://www.w3.org/Graphics/SVG/1.1/DTD/svg11.dtd">
<svg version="1.1" id="Capa_1" xmlns="http://www.w3.org/2000/svg" xmlns:xlink="http://www.w3.org/1999/xlink" x="0px" y="0px"
	 width="300px" height="500px" viewBox="0 0 300 400" enable-background="new 0 0 300 400" xml:space="preserve">
<text transform="matrix(1 0 0 1 75.2852 152.1597)" opacity="0.3"><tspan x="0" y="0" fill="#999999" font-family="'SoberanaSans-Black'" font-size="23">DIRECTORIO</tspan><tspan x="59.109" y="27.6" fill="#999999" font-family="'SoberanaSans-Black'" font-size="23">DE</tspan><tspan x="-70.863" y="55.2" fill="#999999" font-family="'SoberanaSans-Black'" font-size="23">SECRETARIOS DE SALUD</tspan><tspan x="66.446" y="82.799" fill="#999999" font-family="'SoberanaSans-Black'" font-size="23">Y</tspan><tspan x="37.95" y="110.401" fill="#999999" font-family="'SoberanaSans-Black'" font-size="23">REPSS</tspan></text>
<g>
	<path fill-rule="evenodd" clip-rule="evenodd" fill="none" d="M115.616,307.372c0-30.639,0.007-61.277-0.029-91.916
		c-0.001-1.084,0.3-1.242,1.292-1.242c60.726,0.026,121.453,0.027,182.179-0.006c1.083,0,1.241,0.3,1.241,1.292
		c-0.026,61.277-0.026,122.555,0.006,183.833c0.001,1.083-0.299,1.241-1.292,1.241c-60.726-0.026-121.452-0.027-182.179,0.006
		c-1.083,0-1.242-0.3-1.241-1.292C115.621,368.649,115.616,338.011,115.616,307.372z M195.934,362.619
		c4.664,10.604,13.842,10.142,19.692,6.912c5.706-3.149,8.763-11.185,5.481-17.864c-1.658-3.378-4.37-5.659-7.848-6.957
		c-5.346-1.996-9.895-0.123-14.195,3.433c0.071-0.464,0.068-0.648,0.13-0.81c1.909-5.036,4.297-9.84,7.024-14.48
		c2.915-4.96,6.324-9.571,9.857-14.101c1.388-1.779,1.256-3.352-0.421-4.86c-1.752-1.577-3.936-1.709-6.1-1.354
		c-6.077,0.998-10.976,4.296-15.43,8.306c-3.845,3.462-7.103,7.437-9.557,12.016c-0.621,1.158-1.348,1.391-2.568,0.964
		c-2.751-0.961-5.045-2.596-7.162-4.531c-4.472-4.087-8.07-8.896-11.512-13.842c-4.615-6.631-8.904-13.489-13.866-19.88
		c-2.09-2.692-4.383-3.264-7.482-1.762c-1.854,0.897-3.302,2.275-4.622,3.833c-3.104,3.662-3.625,9.841-1.206,13.973
		c1.978,3.379,4.265,6.526,6.738,9.555c4.223,5.173,8.985,9.805,13.987,14.209c3.063,2.697,6.078,5.451,9.096,8.201
		c0.49,0.446,1.058,0.888,1.14,1.794c-1.577-0.135-2.981-0.674-4.373-1.211c-6.459-2.495-11.749-6.768-16.811-11.319
		c-5.084-4.573-10.01-9.322-14.786-14.219c-1.575-1.615-3.388-1.882-5.432-1.305c-2.427,0.686-4.321,2.19-5.973,4.027
		c-3.161,3.518-4.243,8.772-1.333,13.324c3.458,5.408,7.714,10.036,12.66,14.052c8.549,6.941,18.343,11.628,28.548,15.543
		c5.234,2.008,10.563,3.73,15.959,5.247c0.84,0.236,1.493,0.52,1.543,1.611c0.112,2.426,0.267,4.855,0.556,7.266
		c0.49,4.081,1.848,7.819,4.434,11.107c2.242,2.852,5.212,4.891,7.804,7.348c0.965,0.915,2.25,1.233,3.549,1.354
		c2.863,0.266,5.056-1.946,4.388-4.569c-1.373-5.397-2.272-10.854-2.688-16.413C194.796,372.425,195.11,367.702,195.934,362.619z
		 M262.787,283.241c0.215-0.157,0.309-0.278,0.424-0.304c4.221-0.91,8.494-1.544,12.782-1.963
		c5.709-0.558,11.445-0.751,17.186-0.601c0.837,0.021,1.646-0.128,2.446-0.344c2.652-0.719,3.275-2.741,1.461-4.866
		c-1.29-1.512-2.776-2.813-4.557-3.73c-3.029-1.56-6.177-2.817-9.459-3.753c-5.762-1.643-11.635-2.027-17.575-1.585
		c-1.133,0.084-1.576-0.326-1.736-1.376c-0.188-1.224-0.487-2.431-0.721-3.648c-1.948-10.175-4.587-20.144-8.858-29.624
		c-0.611-1.356-0.905-1.434-2.128-0.53c-1.438,1.063-2.868,2.139-4.278,3.239c-1.09,0.852-1.811,0.715-2.678-0.465
		c-4.065-5.526-8.717-10.496-13.991-14.922c-6.104-5.122-12.957-4.444-17.768-0.584c-3.747,3.007-4.298,7.347-1.076,10.1
		c6.345,5.423,12.171,11.44,18.88,16.445c0.326,0.243,0.67,0.486,0.712,0.961c0.107,1.22-2.108,4.018-3.349,4.249
		c-0.475,0.089-0.785-0.141-1.107-0.41c-5.773-4.841-12.164-8.706-18.975-11.881c-3.466-1.616-7.018-2.955-10.973-2.751
		c-3.436,0.177-6.789,2.655-7.854,5.965c-0.979,3.044,0.254,6.393,3.192,8.559c2.16,1.592,4.599,2.662,7.062,3.685
		c3.687,1.529,7.496,2.779,11.012,4.701c1.386,0.757,1.402,1.051,0.39,2.288c-0.964,1.179-2.193,2.081-3.311,3.101
		c-1.68,1.532-1.601,1.931,0.296,3.118c4.366,2.732,8.95,5.061,13.557,7.348c3.126,1.553,6.253,3.104,9.357,4.699
		c1.754,0.9,1.75,1.088,0.215,2.231c-2.651,1.976-5.232,4.024-7.426,6.525c-4.751,5.416-5.626,11.877-4.971,18.699
		c0.147,1.53,0.658,3.206,2.506,3.604c1.81,0.389,3.055-0.833,4.128-2.015c4.736-5.212,9.77-10.094,15.51-14.196
		c2.067-1.477,4.148-2.959,6.585-4.078c-3.241,9.015-1.184,15.686,5.735,18.921c6.283,2.938,13.656,0.451,17.305-5.884
		c1.44-2.501,2.065-5.211,1.521-8.087C271.234,288.677,267.665,285.422,262.787,283.241z"/>
	<path opacity="0.2" fill-rule="evenodd" clip-rule="evenodd" fill="#999999" d="M195.934,362.619
		c-0.823,5.083-1.138,9.806-0.779,14.598c0.416,5.56,1.315,11.016,2.688,16.413c0.668,2.623-1.524,4.835-4.388,4.569
		c-1.299-0.121-2.584-0.439-3.549-1.354c-2.592-2.457-5.562-4.496-7.804-7.348c-2.586-3.288-3.943-7.026-4.434-11.107
		c-0.289-2.41-0.443-4.84-0.556-7.266c-0.05-1.092-0.703-1.375-1.543-1.611c-5.396-1.517-10.725-3.239-15.959-5.247
		c-10.205-3.915-19.999-8.602-28.548-15.543c-4.946-4.016-9.202-8.644-12.66-14.052c-2.91-4.552-1.828-9.807,1.333-13.324
		c1.651-1.837,3.545-3.342,5.973-4.027c2.043-0.577,3.856-0.311,5.432,1.305c4.776,4.896,9.702,9.646,14.786,14.219
		c5.062,4.552,10.352,8.824,16.811,11.319c1.392,0.537,2.796,1.076,4.373,1.211c-0.082-0.906-0.649-1.348-1.14-1.794
		c-3.018-2.75-6.032-5.504-9.096-8.201c-5.002-4.404-9.764-9.036-13.987-14.209c-2.473-3.028-4.76-6.176-6.738-9.555
		c-2.419-4.132-1.898-10.311,1.206-13.973c1.32-1.558,2.768-2.936,4.622-3.833c3.099-1.502,5.392-0.931,7.482,1.762
		c4.962,6.391,9.251,13.249,13.866,19.88c3.441,4.945,7.04,9.755,11.512,13.842c2.117,1.936,4.411,3.57,7.162,4.531
		c1.221,0.427,1.947,0.194,2.568-0.964c2.454-4.579,5.712-8.554,9.557-12.016c4.454-4.01,9.353-7.308,15.43-8.306
		c2.164-0.355,4.348-0.224,6.1,1.354c1.677,1.509,1.809,3.081,0.421,4.86c-3.533,4.529-6.942,9.141-9.857,14.101
		c-2.728,4.641-5.115,9.444-7.024,14.48c-0.062,0.161-0.059,0.346-0.13,0.81c4.301-3.556,8.85-5.429,14.195-3.433
		c3.478,1.298,6.189,3.579,7.848,6.957c3.281,6.68,0.225,14.715-5.481,17.864C209.775,372.761,200.598,373.223,195.934,362.619z"/>
	<path opacity="0.2" fill-rule="evenodd" clip-rule="evenodd" fill="#999999" d="M262.787,283.241
		c4.878,2.181,8.447,5.436,9.471,10.841c0.544,2.876-0.081,5.586-1.521,8.087c-3.648,6.335-11.021,8.822-17.305,5.884
		c-6.919-3.235-8.977-9.906-5.735-18.921c-2.437,1.119-4.518,2.602-6.585,4.078c-5.74,4.103-10.773,8.984-15.51,14.196
		c-1.073,1.182-2.318,2.403-4.128,2.015c-1.848-0.397-2.358-2.073-2.506-3.604c-0.655-6.822,0.22-13.283,4.971-18.699
		c2.193-2.501,4.774-4.55,7.426-6.525c1.535-1.144,1.539-1.331-0.215-2.231c-3.104-1.595-6.231-3.146-9.357-4.699
		c-4.606-2.287-9.19-4.615-13.557-7.348c-1.896-1.188-1.976-1.586-0.296-3.118c1.117-1.02,2.347-1.922,3.311-3.101
		c1.013-1.237,0.996-1.531-0.39-2.288c-3.516-1.922-7.325-3.172-11.012-4.701c-2.463-1.022-4.901-2.093-7.062-3.685
		c-2.938-2.166-4.172-5.515-3.192-8.559c1.065-3.31,4.419-5.788,7.854-5.965c3.955-0.204,7.507,1.135,10.973,2.751
		c6.811,3.175,13.201,7.04,18.975,11.881c0.322,0.27,0.633,0.499,1.107,0.41c1.24-0.231,3.456-3.029,3.349-4.249
		c-0.042-0.475-0.386-0.718-0.712-0.961c-6.709-5.005-12.535-11.022-18.88-16.445c-3.222-2.753-2.671-7.093,1.076-10.1
		c4.811-3.86,11.664-4.538,17.768,0.584c5.274,4.426,9.926,9.396,13.991,14.922c0.867,1.18,1.588,1.316,2.678,0.465
		c1.41-1.101,2.84-2.176,4.278-3.239c1.223-0.903,1.517-0.826,2.128,0.53c4.271,9.48,6.91,19.449,8.858,29.624
		c0.233,1.218,0.533,2.425,0.721,3.648c0.16,1.05,0.604,1.46,1.736,1.376c5.94-0.442,11.813-0.058,17.575,1.585
		c3.282,0.936,6.43,2.193,9.459,3.753c1.78,0.917,3.267,2.219,4.557,3.73c1.814,2.125,1.191,4.147-1.461,4.866
		c-0.8,0.216-1.609,0.365-2.446,0.344c-5.74-0.15-11.477,0.043-17.186,0.601c-4.288,0.419-8.562,1.053-12.782,1.963
		C263.096,282.963,263.002,283.084,262.787,283.241z"/>
</g>
</svg>
